<?xml version="1.0" encoding="UTF-8"?>
<svg width="420px" height="223px" viewBox="0 0 420 223" version="1.1" xmlns="http://www.w3.org/2000/svg" xmlns:xlink="http://www.w3.org/1999/xlink">
    <!-- Generator: Sketch 57.1 (83088) - https://sketch.com -->
    <title>Heal_RGB</title>
    <desc>Created with Sketch.</desc>
    <defs>
        <polygon id="path-1" points="0 0.337735099 170.524616 0.337735099 170.524616 170.859788 0 170.859788"></polygon>
    </defs>
    <g id="Heal_RGB" stroke="none" stroke-width="1" fill="none" fill-rule="evenodd">
        <g id="Group-4" transform="translate(30.000000, 26.000000)">
            <text id="capital" font-family="Noway" font-size="56.9536424" font-weight="normal" letter-spacing="0.113907277" fill="#FFFFFF">
                <tspan x="183.238377" y="104.13105">capi</tspan>
                <tspan x="283.476788" y="104.13105" letter-spacing="-0.455629107">t</tspan>
                <tspan x="306.087384" y="104.13105">al</tspan>
            </text>
            <g id="Group-3" transform="translate(0.000000, 0.233225)">
                <mask id="mask-2" fill="white">
                    <use xlink:href="#path-1"></use>
                </mask>
                <g id="Clip-2"></g>
                <path d="M170.524616,85.5973377 C170.524616,38.5109139 132.351437,0.337735099 85.2621656,0.337735099 C38.172894,0.337735099 -0.000284768212,38.5109139 -0.000284768212,85.5973377 C-0.000284768212,132.686609 38.172894,170.859788 85.2621656,170.859788 C132.351437,170.859788 170.524616,132.686609 170.524616,85.5973377 L170.524616,85.5973377 Z M49.8113709,86.1668742 L45.7676623,106.954954 L36.6550795,106.954954 L40.3570662,88.0463444 C40.9835563,84.6889272 39.8444834,83.4929007 37.6232914,83.4929007 C35.9716358,83.4929007 34.0352119,84.4013113 32.6683245,85.3723709 L28.4509073,106.954954 L19.3411722,106.954954 L27.656404,64.2397219 L36.7661391,64.2397219 L34.2060728,77.3419073 C36.5411722,75.8041589 39.4429603,74.835947 42.518457,74.835947 C49.3557417,74.835947 51.0615033,79.8450199 49.8113709,86.1668742 L49.8113709,86.1668742 Z M82.0442848,87.3087947 L80.6773974,94.482106 L64.5025629,94.482106 L64.0469338,96.703298 C63.7052119,98.4119073 64.5025629,99.8955497 67.7489205,99.8955497 C70.539649,99.8955497 73.3873311,99.3231656 76.6906424,97.9591258 L78.0575298,104.394887 C74.4694503,106.556278 70.1979272,107.410583 65.8124967,107.410583 C57.0985894,107.410583 53.6813709,102.911245 55.1052119,95.6781325 L56.6999139,87.3087947 C58.1807086,79.5630993 63.0787219,74.835947 71.7356755,74.835947 C80.1648146,74.835947 83.5820331,79.3893907 82.0442848,87.3087947 L82.0442848,87.3087947 Z M116.558192,75.2915762 L112.286669,97.2756821 C111.944947,99.2092583 112.742298,99.9496556 114.223093,99.9496556 C114.678722,99.9496556 115.305212,99.8955497 115.931702,99.7246887 L115.931702,105.704821 C114.450907,106.729987 112.343623,107.410583 110.236338,107.410583 C106.876073,107.410583 105.053556,106.16045 104.256205,104.050318 C101.864152,105.986742 99.3581921,107.410583 95.0297152,107.410583 C87.9674636,107.410583 85.1197815,102.68343 86.6005762,94.8836291 L88.0244172,87.3087947 C89.5052119,79.503298 94.0615033,74.835947 100.782033,74.835947 C104.199252,74.835947 106.249583,76.313894 107.103887,78.079457 L109.097265,75.2915762 L116.558192,75.2915762 Z M138.827066,64.2397219 L132.391305,97.2756821 C132.049583,99.2092583 132.846934,99.9496556 134.327728,99.9496556 C134.783358,99.9496556 135.409848,99.8357483 136.036338,99.6107815 L137.00455,105.531113 C135.694616,106.556278 132.733026,107.410583 130.625742,107.410583 C124.18998,107.410583 121.911834,104.221179 123.449583,96.4213775 L129.714483,64.2397219 L138.827066,64.2397219 Z M153.748921,96.6491921 L151.755543,106.954954 L141.503887,106.954954 L143.497265,96.6491921 L153.748921,96.6491921 Z M103.23104,96.703298 L105.452232,85.4862781 C104.597927,84.233298 103.401901,83.4330993 101.807199,83.4330993 C99.1303775,83.4330993 97.6495828,85.084755 96.9661391,88.4450199 L95.8840199,93.8015099 C95.2005762,97.2158808 96.1118344,98.8134305 98.7886556,98.8134305 C100.383358,98.8134305 101.921106,97.9591258 103.23104,96.703298 L103.23104,96.703298 Z M73.6151457,86.7364106 C74.0707748,83.9485298 73.5012384,82.1829669 70.7105099,82.1829669 C67.9767351,82.1829669 66.4959404,83.8887285 65.9833576,86.7364106 L65.8124967,87.7644238 L73.3873311,87.7644238 L73.6151457,86.7364106 Z" id="Fill-1" fill="#FFFFFF" mask="url(#mask-2)"></path>
            </g>
        </g>
    </g>
</svg>